{"title":"Blue Crush 2002 BRRip 720p x264 AAC - PRiSTiNE [P2PDL]","uid":8401262,"size":698818809,"categoryP":"video","categoryS":"hd___movies","magnet":"?xt=urn:btih:914167c6d6b1522bb1635ff55d735608e81837a7&amp;dn=Blue+Crush+2002+BRRip+720p+x264+AAC+-+PRiSTiNE+%5BP2PDL%5D&amp;tr=udp%3A%2F%2Ftracker.openbittorrent.com%3A80&amp;tr=udp%3A%2F%2Fopen.demonii.com%3A1337&amp;tr=udp%3A%2F%2Ftracker.coppersurfer.tk%3A6969&amp;tr=udp%3A%2F%2Fexodus.desync.com%3A6969","seeders":4,"leechers":1,"uploader":"Vitamin_X","files":-1,"time":1366704873,"description":"_________________________  Visit us at _________________________\n  &lt;a href=&quot;\nhttp://p2pdl.com&quot; rel=&quot;nofollow&quot; target=&quot;_NEW&quot;&gt;\nhttp://p2pdl.com&lt;/a&gt;  ____________________________ &lt;a href=&quot; http://p2pdl.com&quot; rel=&quot;nofollow&quot; target=&quot;_NEW&quot;&gt; http://p2pdl.com&lt;/a&gt;\n\n\nBlue Crush 2002 BRRip 720p x264 AAC - PRiSTiNE\n\nGenre: Drama | Romance | Sport\nPlot: As a hard-core surfer girl prepares for \na big competition, she finds herself falling for a football player.\nDirector: John Stockwell\nStars: Kate Bosworth, Matthew Davis, Michelle Rodriguez\nRated: Rated PG-13 for sexual content, teen partying, language and a fight\n\nInfo: &lt;a href=&quot;\nhttp://www.imdb.com/title/tt0300532/&quot; rel=&quot;nofollow&quot; target=&quot;_NEW&quot;&gt;\nhttp://www.imdb.com/title/tt0300532/&lt;/a&gt;\n\nGeneral\nComplete name                  : Blue Crush 2002 BRRip 720p x264 AAC - PRiSTiNE.mp4\nFormat                         : MPEG-4\nFormat profile                 : Base Media\nFile size                      : 658 MiB\nDuration                       : 1h 44mn\nOverall bit rate mode          : Variable\nOverall bit rate               : 882 Kbps\n\nVideo\nFormat                         : AVC\nFormat/Info                    : Advanced Video Codec\nFormat profile                 : High &lt;a class=&quot;__cf_email__&quot; href=&quot;/cdn-cgi/l/email-protection&quot; data-cfemail=&quot;fccdccbcb0c8d2cd&quot;&gt;[email&amp;#160;protected]&lt;/a&gt;&lt;script cf-hash='f9e31' type=&quot;text/javascript&quot;&gt;\n/* &lt;![CDATA[ */!function(){try{var t=&quot;currentScript&quot;in document?document.currentScript:function(){for(var t=document.getElementsByTagName(&quot;script&quot;),e=t.length;e--;)if(t[e].getAttribute(&quot;cf-hash&quot;))return t[e]}();if(t&amp;&amp;t.previousSibling){var e,r,n,i,c=t.previousSibling,a=c.getAttribute(&quot;data-cfemail&quot;);if(a){for(e=&quot;&quot;,r=parseInt(a.substr(0,2),16),n=2;a.length-n;n+=2)i=parseInt(a.substr(n,2),16)^r,e+=String.fromCharCode(i);e=document.createTextNode(e),c.parentNode.replaceChild(e,c)}}}catch(u){}}();/* ]]&gt; */&lt;/script&gt;\nBit rate                       : 798 Kbps\nWidth                          : 1 280 pixels\nHeight                         : 688 pixels\nDisplay aspect ratio           : 1.85:1\nFrame rate mode                : Constant\nFrame rate                     : 23.976 fps\nBit depth                      : 10 bits\nStream size                    : 595 MiB (90%)\nWriting library                : x264 core 130 r2273 b3065e6\n\nAudio\nFormat                         : AAC\nBit rate mode                  : Variable\nBit rate                       : 80.0 Kbps\nChannel(s)                     : 2 channels\nChannel positions              : Front: L R\nSampling rate                  : 48.0 KHz\nStream size                    : 59.7 MiB (9%)\nLanguage                       : English\n\nSubtitle                       : Yes (English)\nSource                         : 720p.BluRay.X264-AVCHD (Thanks)\n\nScreenshots:\n &lt;a href=&quot;\nhttp://www.ultraimg.com/images/AKsEV.jpg&quot; rel=&quot;nofollow&quot; target=&quot;_NEW&quot;&gt;\nhttp://www.ultraimg.com/images/AKsEV.jpg&lt;/a&gt; &lt;a href=&quot;\nhttp://www.ultraimg.com/images/mD2XZ.jpg&quot; rel=&quot;nofollow&quot; target=&quot;_NEW&quot;&gt;\nhttp://www.ultraimg.com/images/mD2XZ.jpg&lt;/a&gt; &lt;a href=&quot;\nhttp://www.ultraimg.com/images/IrWGT.jpg&quot; rel=&quot;nofollow&quot; target=&quot;_NEW&quot;&gt;\nhttp://www.ultraimg.com/images/IrWGT.jpg&lt;/a&gt; &lt;a href=&quot;\nhttp://www.ultraimg.com/images/5CohM.jpg&quot; rel=&quot;nofollow&quot; target=&quot;_NEW&quot;&gt;\nhttp://www.ultraimg.com/images/5CohM.jpg&lt;/a&gt; &lt;a href=&quot;\nhttp://www.ultraimg.com/images/vgE3.jpg&quot; rel=&quot;nofollow&quot; target=&quot;_NEW&quot;&gt;\nhttp://www.ultraimg.com/images/vgE3.jpg&lt;/a&gt; &lt;a href=&quot;\nhttp://www.ultraimg.com/images/3WQAV.jpg&quot; rel=&quot;nofollow&quot; target=&quot;_NEW&quot;&gt;\nhttp://www.ultraimg.com/images/3WQAV.jpg&lt;/a&gt; &lt;a href=&quot;\nhttp://www.ultraimg.com/images/3K8Bg.jpg&quot; rel=&quot;nofollow&quot; target=&quot;_NEW&quot;&gt;\nhttp://www.ultraimg.com/images/3K8Bg.jpg&lt;/a&gt;\n\n----------------------------------------------------------------------------------------------------\n\n\nEncoded using revolutionary 10bit encoding, which enables us to provide you more crispier \nand sharper images at small sizes, just make sure you follow our instructions without a fault.\nRecommend to you to use latest version of VLC player. Install K-Lite Codec Pack or shark007 codecs\nin case of any kind of problem in playback (For non-VLC Media Player users). Alternatively, install\nCore AVC codecs, the fastest decoder that there is coupled with Community Center Codec Pack and play\non Windows Media Player Classic. Check sample to be sure.\nEnjoy!\n\nEncoder Notes:Looking For Early Access To Anything You Can Provide DVDScr, R5, DVDR, BluRay, Direct\nAudio, Music Releases and Seedboxes. We require dedicated servers, so as to do more \nand fast releases of movies.\nIf You Got anything to offer please contact us at &quot;&lt;a class=&quot;__cf_email__&quot; href=&quot;/cdn-cgi/l/email-protection&quot; data-cfemail=&quot;39494b5e79514c4a51175a5654&quot;&gt;[email&amp;#160;protected]&lt;/a&gt;&lt;script cf-hash='f9e31' type=&quot;text/javascript&quot;&gt;\n/* &lt;![CDATA[ */!function(){try{var t=&quot;currentScript&quot;in document?document.currentScript:function(){for(var t=document.getElementsByTagName(&quot;script&quot;),e=t.length;e--;)if(t[e].getAttribute(&quot;cf-hash&quot;))return t[e]}();if(t&amp;&amp;t.previousSibling){var e,r,n,i,c=t.previousSibling,a=c.getAttribute(&quot;data-cfemail&quot;);if(a){for(e=&quot;&quot;,r=parseInt(a.substr(0,2),16),n=2;a.length-n;n+=2)i=parseInt(a.substr(n,2),16)^r,e+=String.fromCharCode(i);e=document.createTextNode(e),c.parentNode.replaceChild(e,c)}}}catch(u){}}();/* ]]&gt; */&lt;/script&gt;&quot;.\n\nFace book Fan Page:   &lt;a href=&quot;\nhttp://www.fb.me/p2pdl&quot; rel=&quot;nofollow&quot; target=&quot;_NEW&quot;&gt;\nhttp://www.fb.me/p2pdl&lt;/a&gt;","torrent":{"xt":"urn:btih:914167c6d6b1522bb1635ff55d735608e81837a7","amp;dn":"Blue+Crush+2002+BRRip+720p+x264+AAC+-+PRiSTiNE+%5BP2PDL%5D","amp;tr":["udp%3A%2F%2Ftracker.openbittorrent.com%3A80","udp%3A%2F%2Fopen.demonii.com%3A1337","udp%3A%2F%2Ftracker.coppersurfer.tk%3A6969","udp%3A%2F%2Fexodus.desync.com%3A6969"],"infoHash":"914167c6d6b1522bb1635ff55d735608e81837a7","infoHashBuffer":{"type":"Buffer","data":[145,65,103,198,214,177,82,43,177,99,95,245,93,115,86,8,232,24,55,167]},"announce":[],"urlList":[]}}